<?xml version="1.0" standalone="no"?><!DOCTYPE svg PUBLIC "-//W3C//DTD SVG 1.1//EN" "http://www.w3.org/Graphics/SVG/1.1/DTD/svg11.dtd"><svg t="1483694834367" class="icon" style="" viewBox="0 0 1024 1024" version="1.1" xmlns="http://www.w3.org/2000/svg" p-id="824" xmlns:xlink="http://www.w3.org/1999/xlink" width="200" height="200"><defs><style type="text/css"></style></defs><path d="M871.6 259.7L745.3 131c-8.4-8.6-19.9-13.4-31.9-13.4H184.5c-24.7 0-44.8 20-44.8 44.8v700.3c0 24.7 20 44.8 44.8 44.8h655.1c24.7 0 44.8-20 44.8-44.8V291c0-11.7-4.6-22.9-12.8-31.3z" fill="#18BAA2" p-id="825"></path><path d="M784.9 309.4h-80.1c-6.7 0-12.1-5.4-12.1-12.1v-80.1c0-23.8-19.3-43.2-43.2-43.2H239.3c-23.8 0-43.2 19.3-43.2 43.2v590.6c0 23.8 19.3 43.2 43.2 43.2h545.5c23.8 0 43.2-19.3 43.2-43.2V352.6c0-23.9-19.3-43.2-43.1-43.2zM749 670.5c0 12.5-10.1 22.6-22.6 22.6H320.3c-12.5 0-22.6-10.1-22.6-22.6 0-12.5 10.1-22.6 22.6-22.6h406.2c12.4 0 22.5 10.1 22.5 22.6z m0-79c0 12.5-10.1 22.6-22.6 22.6H320.3c-12.5 0-22.6-10.1-22.6-22.6 0-12.5 10.1-22.6 22.6-22.6h406.2c12.4 0 22.5 10.1 22.5 22.6z" fill="#82D3C7" p-id="826"></path><path d="M512.1 377.1m-90.3 0a90.3 90.3 0 1 0 180.6 0 90.3 90.3 0 1 0-180.6 0Z" fill="#FEF9ED" p-id="827"></path></svg>