<?xml version="1.0" standalone="no"?><!DOCTYPE svg PUBLIC "-//W3C//DTD SVG 1.1//EN" "http://www.w3.org/Graphics/SVG/1.1/DTD/svg11.dtd"><svg t="1483694903870" class="icon" style="" viewBox="0 0 1024 1024" version="1.1" xmlns="http://www.w3.org/2000/svg" p-id="944" xmlns:xlink="http://www.w3.org/1999/xlink" width="200" height="200"><defs><style type="text/css"></style></defs><path d="M571.7 198.1c-11.1-26.7-37.2-44.1-66.2-44.1H338.3c-28.9 0-55 17.4-66.2 44.1-19.7 47.2 15 99.2 66.2 99.2h167.2c51.2 0 85.9-52 66.2-99.2z" fill="#0D8EB8" p-id="945"></path><path d="M853.9 237.6H181c-45.1 0-84.6 36.5-84.6 81.6v457.9c0 45.1 39.5 81.6 84.6 81.6h672.9c45.1 0 81.6-36.5 81.6-81.6V319.2c0-45.1-36.5-81.6-81.6-81.6z" fill="#23B8F2" p-id="946"></path><path d="M853.9 440.6H181c-45.1 0-84.6 36.5-84.6 81.6v75.7c0 45.1 39.5 81.6 84.6 81.6h672.9c45.1 0 81.6-36.5 81.6-81.6v-75.7c0-45-36.5-81.6-81.6-81.6z" fill="#63D7FE" p-id="947"></path><path d="M481.6 560.1m-191.1 0a191.1 191.1 0 1 0 382.2 0 191.1 191.1 0 1 0-382.2 0Z" fill="#21ADE3" p-id="948"></path><path d="M481.6 560.1m-119.4 0a119.4 119.4 0 1 0 238.8 0 119.4 119.4 0 1 0-238.8 0Z" fill="#0E8DB6" p-id="949"></path><path d="M828 321.2m-47.8 0a47.8 47.8 0 1 0 95.6 0 47.8 47.8 0 1 0-95.6 0Z" fill="#63D7FE" p-id="950"></path></svg>