<?xml version="1.0" standalone="no"?><!DOCTYPE svg PUBLIC "-//W3C//DTD SVG 1.1//EN" "http://www.w3.org/Graphics/SVG/1.1/DTD/svg11.dtd"><svg t="1483694943434" class="icon" style="" viewBox="0 0 1024 1024" version="1.1" xmlns="http://www.w3.org/2000/svg" p-id="1103" xmlns:xlink="http://www.w3.org/1999/xlink" width="200" height="200"><defs><style type="text/css"></style></defs><path d="M865.3 152.1L530.9 371.8c-11.9 7.8-27.2 7.8-39.1 0L157.4 152.1c-23.7-15.6-55.1 1.4-55.1 29.7v365.9c0 19.7 15.9 35.6 35.6 35.6h747c19.7 0 35.6-15.9 35.6-35.6V181.8c-0.1-28.3-31.6-45.3-55.2-29.7z" fill="#FF6356" p-id="1104"></path><path d="M520.5 116c-229.8-6.6-418.2 177.7-418.2 406v305.3c0 46 37.3 83.3 83.3 83.3h653.1c45.2 0 81.8-36.6 81.8-81.8V536c-0.1-224.2-175.9-413.5-400-420z" fill="#FEC053" p-id="1105"></path><path d="M565.8 628.2c-11.7-11.7-89.5-11.7-101.2 0-11.7 11.7 20.2 40.9 50.6 40.9 30.4 0 62.3-29.3 50.6-40.9zM324.3 454.8c-25.8 0-46.8 20.9-46.8 46.8 0 25.8 20.9 46.8 46.8 46.8 25.8 0 46.8-20.9 46.8-46.8s-21-46.8-46.8-46.8z m374 0c-25.8 0-46.8 20.9-46.8 46.8 0 25.8 20.9 46.8 46.8 46.8 25.8 0 46.8-20.9 46.8-46.8s-20.9-46.8-46.8-46.8z" fill="#D99214" p-id="1106"></path></svg>